# Blender v2.81 (sub 16) OBJ File: 'crystal.blend'
# www.blender.org
mtllib crystal.mtl
o Icosphere.004_Icosphere.005
v -4.245457 0.519668 3.163412
v -4.006598 3.421800 4.779710
v -4.857717 3.421793 4.166595
v -4.594332 3.035990 3.090430
v -3.488670 3.421796 3.163412
v -3.160477 3.421795 4.159709
v -3.921746 4.536844 3.615130
v -4.098686 -0.176023 4.159709
v -4.013834 0.939021 4.779710
v -3.162714 0.939028 4.166595
v -3.591308 -0.089217 3.887419
v -4.859954 0.939026 4.159709
v -4.715199 0.446989 3.641191
v -3.482808 0.939026 3.167671
v -2.966326 2.307417 3.887419
v -3.687635 2.307418 4.880217
v -4.598001 2.180411 4.696436
v -5.054105 2.053403 3.887419
v -3.687635 2.307418 2.894622
v -3.671314 4.450043 4.133646
v -4.429123 4.450039 3.887419
vt 0.272727 0.000000
vt 0.250000 0.118096
vt 0.340601 0.117562
vt 0.454545 0.000000
vt 0.386671 0.117562
vt 0.500000 0.078731
vt 0.318592 0.288606
vt 0.681202 0.157461
vt 0.636363 0.236191
vt 0.818181 0.236191
vt 0.863020 0.157461
vt 0.954545 0.236191
vt 0.454545 0.236191
vt 0.499383 0.157461
vt 0.864252 0.314921
vt 0.682434 0.314921
vt 0.727272 0.393651
vt 1.000000 0.314921
vt 0.954545 0.393651
vt 0.136979 0.314921
vt 0.181818 0.393651
vt 0.500616 0.314921
vt 0.386671 0.432483
vt 0.590909 0.393651
vt 0.522419 0.432483
vt 0.318182 0.393651
vt 0.863635 0.393651
vt 0.909090 0.472382
vt 0.181818 0.236191
vt 0.135747 0.157461
vt 0.045454 0.236191
vt 0.000000 0.157461
vt 0.136363 0.078731
vt 0.067874 0.039899
vt 0.636363 0.078731
vt 0.841216 0.039899
vt 0.772726 0.078731
vn -0.3788 -0.7841 -0.4917
vn -0.1549 -0.8206 -0.5502
vn -0.6992 -0.1174 -0.7053
vn 0.8090 0.0038 0.5878
vn -0.1944 -0.0257 0.9806
vn -0.2595 -0.0639 -0.9636
vn 0.8090 0.0038 -0.5878
vn 0.5639 0.2997 0.7696
vn -0.5302 0.4208 0.7360
vn -0.9013 0.2878 -0.3238
vn -0.0619 0.3540 -0.9332
vn 0.8616 0.4208 -0.2838
vn 0.8298 0.4539 -0.3248
vn -0.4781 0.4730 -0.7401
vn -0.0632 0.9789 0.1944
vn -0.2534 0.5725 0.7797
vn 0.9232 0.2351 -0.3041
vn 0.8090 -0.0027 -0.5878
vn -0.0188 0.2376 -0.9712
vn -0.9343 0.1950 -0.2986
vn -0.5704 0.2186 0.7918
vn -0.2019 0.0305 0.9789
vn 0.5745 0.2351 0.7840
vn 0.8090 -0.0027 0.5878
vn 0.1042 -0.1796 -0.9782
vn -0.8148 -0.0840 -0.5736
vn -0.9772 -0.1923 -0.0903
vn -0.8725 0.0257 0.4879
vn -0.8686 -0.0305 0.4945
vn -0.5768 -0.2186 0.7871
vn 0.5733 -0.1951 0.7958
vn 0.9340 -0.1951 -0.2993
vn 0.3156 -0.5663 -0.7614
vn -0.7901 -0.5394 0.2913
vn -0.5481 -0.3742 0.7480
vn 0.9085 -0.2997 -0.2911
vn 0.4804 -0.4539 0.7505
vn 0.5302 -0.4208 0.7360
g Icosphere.004_Icosphere.005_Material.002
usemtl Material.002
s off
f 8/1/1 13/2/1 1/3/1
f 8/4/2 1/5/2 11/6/2
f 1/3/3 13/2/3 4/7/3
f 10/8/4 15/9/4 16/10/4
f 9/11/5 16/10/5 17/12/5
f 1/3/6 4/7/6 19/13/6
f 14/14/7 19/13/7 15/9/7
f 2/15/8 6/16/8 20/17/8
f 3/18/9 2/15/9 21/19/9
f 4/7/10 3/20/10 21/21/10
f 5/22/11 4/7/11 7/23/11
f 6/16/12 5/22/12 20/24/12
f 20/24/13 5/22/13 7/25/13
f 7/23/14 4/7/14 21/26/14
f 21/19/15 20/27/15 7/28/15
f 21/19/16 2/15/16 20/27/16
f 15/9/17 5/22/17 6/16/17
f 15/9/18 19/13/18 5/22/18
f 19/13/19 4/7/19 5/22/19
f 18/29/20 3/20/20 4/7/20
f 17/12/21 2/15/21 3/18/21
f 17/12/22 16/10/22 2/15/22
f 16/10/23 6/16/23 2/15/23
f 16/10/24 15/9/24 6/16/24
f 14/14/25 1/3/25 19/13/25
f 4/7/26 13/2/26 18/29/26
f 13/2/27 12/30/27 18/29/27
f 18/29/28 17/31/28 3/20/28
f 18/29/29 12/30/29 17/31/29
f 12/30/30 9/32/30 17/31/30
f 9/11/31 10/8/31 16/10/31
f 10/8/32 14/14/32 15/9/32
f 11/6/33 1/5/33 14/14/33
f 13/33/34 8/34/34 12/30/34
f 8/34/35 9/32/35 12/30/35
f 10/8/36 11/35/36 14/14/36
f 8/36/37 11/37/37 9/11/37
f 11/37/38 10/8/38 9/11/38
